<mxfile host="app.diagrams.net" modified="2022-01-10T07:42:26.026Z" agent="5.0 (Windows NT 10.0; Win64; x64) AppleWebKit/537.36 (KHTML, like Gecko) Chrome/96.0.4664.110 Safari/537.36" etag="XURIIjMtBYAkIFcpIIdA" version="16.2.4" type="github" pages="2">
  <diagram name="Page-1" id="ad52d381-51e7-2e0d-a935-2d0ddd2fd229">
    <mxGraphModel dx="1038" dy="579" grid="1" gridSize="10" guides="1" tooltips="1" connect="1" arrows="1" fold="1" page="1" pageScale="1" pageWidth="1100" pageHeight="850" background="none" math="0" shadow="0">
      <root>
        <mxCell id="0" />
        <mxCell id="1" parent="0" />
        <mxCell id="2c924340bb9dbf6c-1" value="&lt;span&gt;sms&lt;/span&gt;" style="whiteSpace=wrap;html=1;rounded=1;shadow=1;comic=0;labelBackgroundColor=none;strokeWidth=2;fontFamily=Verdana;fontSize=12;align=center;arcSize=50;" parent="1" vertex="1">
          <mxGeometry x="100" y="140" width="100" height="20" as="geometry" />
        </mxCell>
        <mxCell id="2c924340bb9dbf6c-2" value="askona.by" style="ellipse;whiteSpace=wrap;html=1;rounded=1;shadow=1;comic=0;labelBackgroundColor=none;strokeWidth=2;fontFamily=Verdana;fontSize=12;align=center;" parent="1" vertex="1">
          <mxGeometry x="260" y="110" width="120" height="120" as="geometry" />
        </mxCell>
        <mxCell id="2c924340bb9dbf6c-3" value="&lt;span&gt;askona.kz&lt;br&gt;Б24&lt;/span&gt;" style="ellipse;whiteSpace=wrap;html=1;rounded=1;shadow=1;comic=0;labelBackgroundColor=none;strokeWidth=2;fontFamily=Verdana;fontSize=12;align=center;" parent="1" vertex="1">
          <mxGeometry x="670" y="100" width="140" height="140" as="geometry" />
        </mxCell>
        <mxCell id="2c924340bb9dbf6c-8" value="&lt;span&gt;email&lt;/span&gt;" style="whiteSpace=wrap;html=1;rounded=1;shadow=1;comic=0;labelBackgroundColor=none;strokeWidth=2;fontFamily=Verdana;fontSize=12;align=center;arcSize=50;" parent="1" vertex="1">
          <mxGeometry x="100" y="270" width="100" height="20" as="geometry" />
        </mxCell>
        <mxCell id="2c924340bb9dbf6c-9" value="сервис поиска по сайту" style="whiteSpace=wrap;html=1;rounded=1;shadow=1;comic=0;labelBackgroundColor=none;strokeWidth=2;fontFamily=Verdana;fontSize=12;align=center;arcSize=50;" parent="1" vertex="1">
          <mxGeometry x="95" y="190" width="110" height="30" as="geometry" />
        </mxCell>
        <mxCell id="2c924340bb9dbf6c-10" value="&lt;span&gt;Б24&lt;/span&gt;" style="whiteSpace=wrap;html=1;rounded=1;shadow=1;comic=0;labelBackgroundColor=none;strokeWidth=2;fontFamily=Verdana;fontSize=12;align=center;arcSize=50;" parent="1" vertex="1">
          <mxGeometry x="150" y="60" width="100" height="20" as="geometry" />
        </mxCell>
        <mxCell id="2c924340bb9dbf6c-11" value="sms" style="whiteSpace=wrap;html=1;rounded=1;shadow=1;comic=0;labelBackgroundColor=none;strokeWidth=2;fontFamily=Verdana;fontSize=12;align=center;arcSize=50;" parent="1" vertex="1">
          <mxGeometry x="830" y="90" width="100" height="20" as="geometry" />
        </mxCell>
        <mxCell id="2c924340bb9dbf6c-14" value="&lt;span&gt;email&lt;/span&gt;" style="whiteSpace=wrap;html=1;rounded=1;shadow=1;comic=0;labelBackgroundColor=none;strokeWidth=2;fontFamily=Verdana;fontSize=12;align=center;arcSize=50;" parent="1" vertex="1">
          <mxGeometry x="850" y="130" width="100" height="20" as="geometry" />
        </mxCell>
        <mxCell id="2c924340bb9dbf6c-15" value="сторонние сервисы" style="whiteSpace=wrap;html=1;rounded=1;shadow=1;comic=0;labelBackgroundColor=none;strokeWidth=2;fontFamily=Verdana;fontSize=12;align=center;arcSize=50;" parent="1" vertex="1">
          <mxGeometry x="840" y="190" width="110" height="30" as="geometry" />
        </mxCell>
        <mxCell id="e7sv1rvLlpTnSlCccXUs-2" value="БД&lt;br&gt;Б24" style="shape=cylinder3;whiteSpace=wrap;html=1;boundedLbl=1;backgroundOutline=1;size=15;" vertex="1" parent="1">
          <mxGeometry x="50" y="20" width="60" height="80" as="geometry" />
        </mxCell>
        <mxCell id="e7sv1rvLlpTnSlCccXUs-3" value="БД askona.by" style="shape=cylinder3;whiteSpace=wrap;html=1;boundedLbl=1;backgroundOutline=1;size=15;" vertex="1" parent="1">
          <mxGeometry x="440" y="130" width="60" height="80" as="geometry" />
        </mxCell>
        <mxCell id="e7sv1rvLlpTnSlCccXUs-4" value="БД askona.kz&lt;br&gt;Б24" style="shape=cylinder3;whiteSpace=wrap;html=1;boundedLbl=1;backgroundOutline=1;size=15;" vertex="1" parent="1">
          <mxGeometry x="550" y="115" width="90" height="110" as="geometry" />
        </mxCell>
        <mxCell id="e7sv1rvLlpTnSlCccXUs-7" value="" style="endArrow=classic;startArrow=classic;html=1;rounded=0;exitX=1;exitY=0.5;exitDx=0;exitDy=0;entryX=0;entryY=0.5;entryDx=0;entryDy=0;entryPerimeter=0;" edge="1" parent="1" source="2c924340bb9dbf6c-2" target="e7sv1rvLlpTnSlCccXUs-3">
          <mxGeometry width="50" height="50" relative="1" as="geometry">
            <mxPoint x="510" y="290" as="sourcePoint" />
            <mxPoint x="560" y="240" as="targetPoint" />
          </mxGeometry>
        </mxCell>
        <mxCell id="e7sv1rvLlpTnSlCccXUs-9" value="" style="endArrow=classic;startArrow=classic;html=1;rounded=0;entryX=1;entryY=0.5;entryDx=0;entryDy=0;entryPerimeter=0;exitX=0;exitY=0.5;exitDx=0;exitDy=0;" edge="1" parent="1" source="2c924340bb9dbf6c-10" target="e7sv1rvLlpTnSlCccXUs-2">
          <mxGeometry width="50" height="50" relative="1" as="geometry">
            <mxPoint x="380" y="50" as="sourcePoint" />
            <mxPoint x="560" y="240" as="targetPoint" />
          </mxGeometry>
        </mxCell>
        <mxCell id="e7sv1rvLlpTnSlCccXUs-12" value="" style="endArrow=classic;startArrow=classic;html=1;rounded=0;entryX=0;entryY=0.5;entryDx=0;entryDy=0;exitX=1;exitY=0.5;exitDx=0;exitDy=0;exitPerimeter=0;" edge="1" parent="1" source="e7sv1rvLlpTnSlCccXUs-4" target="2c924340bb9dbf6c-3">
          <mxGeometry width="50" height="50" relative="1" as="geometry">
            <mxPoint x="510" y="290" as="sourcePoint" />
            <mxPoint x="560" y="240" as="targetPoint" />
          </mxGeometry>
        </mxCell>
        <mxCell id="e7sv1rvLlpTnSlCccXUs-16" value="заказы" style="endArrow=classic;startArrow=none;html=1;rounded=0;exitX=1;exitY=1;exitDx=0;exitDy=0;entryX=1;entryY=0;entryDx=0;entryDy=0;" edge="1" parent="1" source="2c924340bb9dbf6c-3" target="e7sv1rvLlpTnSlCccXUs-19">
          <mxGeometry width="50" height="50" relative="1" as="geometry">
            <mxPoint x="730" y="232" as="sourcePoint" />
            <mxPoint x="740" y="300" as="targetPoint" />
          </mxGeometry>
        </mxCell>
        <mxCell id="e7sv1rvLlpTnSlCccXUs-17" value="товары" style="endArrow=classic;html=1;rounded=0;exitX=0.5;exitY=0;exitDx=0;exitDy=0;entryX=0.5;entryY=1;entryDx=0;entryDy=0;" edge="1" parent="1" source="e7sv1rvLlpTnSlCccXUs-18" target="2c924340bb9dbf6c-2">
          <mxGeometry width="50" height="50" relative="1" as="geometry">
            <mxPoint x="520" y="240" as="sourcePoint" />
            <mxPoint x="570" y="190" as="targetPoint" />
          </mxGeometry>
        </mxCell>
        <mxCell id="e7sv1rvLlpTnSlCccXUs-18" value="1С askona.by" style="ellipse;whiteSpace=wrap;html=1;rounded=1;shadow=1;comic=0;labelBackgroundColor=none;strokeWidth=2;fontFamily=Verdana;fontSize=12;align=center;" vertex="1" parent="1">
          <mxGeometry x="260" y="290" width="120" height="110" as="geometry" />
        </mxCell>
        <mxCell id="e7sv1rvLlpTnSlCccXUs-19" value="1C askona.kz" style="ellipse;whiteSpace=wrap;html=1;rounded=1;shadow=1;comic=0;labelBackgroundColor=none;strokeWidth=2;fontFamily=Verdana;fontSize=12;align=center;" vertex="1" parent="1">
          <mxGeometry x="685" y="290" width="110" height="110" as="geometry" />
        </mxCell>
        <mxCell id="e7sv1rvLlpTnSlCccXUs-20" value="1. Текущее состояние проектов" style="text;html=1;strokeColor=none;fillColor=none;align=center;verticalAlign=middle;whiteSpace=wrap;rounded=0;" vertex="1" parent="1">
          <mxGeometry x="130" y="425" width="740" height="30" as="geometry" />
        </mxCell>
        <mxCell id="e7sv1rvLlpTnSlCccXUs-22" value="интеграции с платежными шлюзами" style="whiteSpace=wrap;html=1;rounded=1;shadow=1;comic=0;labelBackgroundColor=none;strokeWidth=2;fontFamily=Verdana;fontSize=12;align=center;arcSize=50;" vertex="1" parent="1">
          <mxGeometry x="700" y="10" width="130" height="50" as="geometry" />
        </mxCell>
        <mxCell id="e7sv1rvLlpTnSlCccXUs-24" value="" style="endArrow=classic;startArrow=classic;html=1;rounded=0;entryX=0.5;entryY=1;entryDx=0;entryDy=0;exitX=0.5;exitY=0;exitDx=0;exitDy=0;" edge="1" parent="1" source="2c924340bb9dbf6c-3" target="e7sv1rvLlpTnSlCccXUs-22">
          <mxGeometry width="50" height="50" relative="1" as="geometry">
            <mxPoint x="520" y="250" as="sourcePoint" />
            <mxPoint x="570" y="200" as="targetPoint" />
          </mxGeometry>
        </mxCell>
        <mxCell id="e7sv1rvLlpTnSlCccXUs-25" value="интеграции с платежными шлюзами" style="whiteSpace=wrap;html=1;rounded=1;shadow=1;comic=0;labelBackgroundColor=none;strokeWidth=2;fontFamily=Verdana;fontSize=12;align=center;arcSize=50;" vertex="1" parent="1">
          <mxGeometry x="340" y="10" width="130" height="50" as="geometry" />
        </mxCell>
        <mxCell id="e7sv1rvLlpTnSlCccXUs-27" value="" style="endArrow=classic;startArrow=classic;html=1;rounded=0;exitX=0.703;exitY=0.028;exitDx=0;exitDy=0;exitPerimeter=0;entryX=0.5;entryY=1;entryDx=0;entryDy=0;" edge="1" parent="1" source="2c924340bb9dbf6c-2" target="e7sv1rvLlpTnSlCccXUs-25">
          <mxGeometry width="50" height="50" relative="1" as="geometry">
            <mxPoint x="520" y="250" as="sourcePoint" />
            <mxPoint x="570" y="200" as="targetPoint" />
          </mxGeometry>
        </mxCell>
        <mxCell id="e7sv1rvLlpTnSlCccXUs-28" value="" style="endArrow=classic;html=1;rounded=0;exitX=0;exitY=0.5;exitDx=0;exitDy=0;entryX=1;entryY=0.5;entryDx=0;entryDy=0;" edge="1" parent="1" source="2c924340bb9dbf6c-2" target="2c924340bb9dbf6c-1">
          <mxGeometry width="50" height="50" relative="1" as="geometry">
            <mxPoint x="520" y="250" as="sourcePoint" />
            <mxPoint x="570" y="200" as="targetPoint" />
          </mxGeometry>
        </mxCell>
        <mxCell id="e7sv1rvLlpTnSlCccXUs-29" value="" style="endArrow=classic;html=1;rounded=0;exitX=0.037;exitY=0.742;exitDx=0;exitDy=0;exitPerimeter=0;entryX=1;entryY=0.5;entryDx=0;entryDy=0;" edge="1" parent="1" source="2c924340bb9dbf6c-2" target="2c924340bb9dbf6c-9">
          <mxGeometry width="50" height="50" relative="1" as="geometry">
            <mxPoint x="520" y="250" as="sourcePoint" />
            <mxPoint x="570" y="200" as="targetPoint" />
          </mxGeometry>
        </mxCell>
        <mxCell id="e7sv1rvLlpTnSlCccXUs-30" value="" style="endArrow=classic;html=1;rounded=0;exitX=0.19;exitY=0.922;exitDx=0;exitDy=0;exitPerimeter=0;entryX=1;entryY=0.5;entryDx=0;entryDy=0;" edge="1" parent="1" source="2c924340bb9dbf6c-2" target="2c924340bb9dbf6c-8">
          <mxGeometry width="50" height="50" relative="1" as="geometry">
            <mxPoint x="520" y="250" as="sourcePoint" />
            <mxPoint x="570" y="200" as="targetPoint" />
          </mxGeometry>
        </mxCell>
        <mxCell id="Ysu8DWHyUEaglPwo_BN1-1" value="" style="endArrow=classic;html=1;rounded=0;entryX=0;entryY=0.5;entryDx=0;entryDy=0;exitX=0.917;exitY=0.235;exitDx=0;exitDy=0;exitPerimeter=0;" edge="1" parent="1" source="2c924340bb9dbf6c-3" target="2c924340bb9dbf6c-11">
          <mxGeometry width="50" height="50" relative="1" as="geometry">
            <mxPoint x="520" y="250" as="sourcePoint" />
            <mxPoint x="570" y="200" as="targetPoint" />
          </mxGeometry>
        </mxCell>
        <mxCell id="Ysu8DWHyUEaglPwo_BN1-2" value="" style="endArrow=classic;html=1;rounded=0;entryX=0;entryY=0.5;entryDx=0;entryDy=0;exitX=1;exitY=0.5;exitDx=0;exitDy=0;" edge="1" parent="1" source="2c924340bb9dbf6c-3" target="2c924340bb9dbf6c-14">
          <mxGeometry width="50" height="50" relative="1" as="geometry">
            <mxPoint x="803" y="182" as="sourcePoint" />
            <mxPoint x="570" y="200" as="targetPoint" />
          </mxGeometry>
        </mxCell>
        <mxCell id="Ysu8DWHyUEaglPwo_BN1-9" value="" style="endArrow=classic;html=1;rounded=0;entryX=0;entryY=0.5;entryDx=0;entryDy=0;exitX=1.003;exitY=0.715;exitDx=0;exitDy=0;exitPerimeter=0;" edge="1" parent="1" source="2c924340bb9dbf6c-3" target="2c924340bb9dbf6c-15">
          <mxGeometry width="50" height="50" relative="1" as="geometry">
            <mxPoint x="520" y="250" as="sourcePoint" />
            <mxPoint x="570" y="200" as="targetPoint" />
          </mxGeometry>
        </mxCell>
        <mxCell id="Ysu8DWHyUEaglPwo_BN1-10" value="" style="endArrow=classic;html=1;rounded=0;entryX=1;entryY=0.5;entryDx=0;entryDy=0;" edge="1" parent="1" source="2c924340bb9dbf6c-2" target="2c924340bb9dbf6c-10">
          <mxGeometry width="50" height="50" relative="1" as="geometry">
            <mxPoint x="520" y="250" as="sourcePoint" />
            <mxPoint x="570" y="200" as="targetPoint" />
          </mxGeometry>
        </mxCell>
        <mxCell id="P3hFTWytEdL6UGkjS3p5-1" value="Б24" style="ellipse;whiteSpace=wrap;html=1;" vertex="1" parent="1">
          <mxGeometry x="710" y="170" width="60" height="50" as="geometry" />
        </mxCell>
        <mxCell id="P3hFTWytEdL6UGkjS3p5-4" value="товары&lt;br&gt;остатки&lt;br&gt;цены" style="endArrow=classic;html=1;rounded=0;exitX=0.184;exitY=0.082;exitDx=0;exitDy=0;exitPerimeter=0;entryX=0.214;entryY=0.929;entryDx=0;entryDy=0;entryPerimeter=0;" edge="1" parent="1" source="e7sv1rvLlpTnSlCccXUs-19" target="2c924340bb9dbf6c-3">
          <mxGeometry width="50" height="50" relative="1" as="geometry">
            <mxPoint x="520" y="280" as="sourcePoint" />
            <mxPoint x="570" y="230" as="targetPoint" />
          </mxGeometry>
        </mxCell>
      </root>
    </mxGraphModel>
  </diagram>
  <diagram id="F1m-8lCXPfL2lrKhz0e7" name="Page-2">
    <mxGraphModel dx="1038" dy="579" grid="1" gridSize="10" guides="1" tooltips="1" connect="1" arrows="1" fold="1" page="1" pageScale="1" pageWidth="827" pageHeight="1169" math="0" shadow="0">
      <root>
        <mxCell id="42iXVZKyQg-ZkgAwgZf2-0" />
        <mxCell id="42iXVZKyQg-ZkgAwgZf2-1" parent="42iXVZKyQg-ZkgAwgZf2-0" />
        <mxCell id="U29771Ecz4MOP07TJdpR-19" value="2. Остатки, цены, api" style="text;html=1;strokeColor=none;fillColor=none;align=center;verticalAlign=middle;whiteSpace=wrap;rounded=0;" vertex="1" parent="42iXVZKyQg-ZkgAwgZf2-1">
          <mxGeometry x="320" y="490" width="740" height="30" as="geometry" />
        </mxCell>
        <mxCell id="YQZS7FdD5D_KlTmMAMFZ-0" value="&lt;span&gt;askona.kz&lt;br&gt;Б24&lt;/span&gt;" style="ellipse;whiteSpace=wrap;html=1;rounded=1;shadow=1;comic=0;labelBackgroundColor=none;strokeWidth=2;fontFamily=Verdana;fontSize=12;align=center;" vertex="1" parent="42iXVZKyQg-ZkgAwgZf2-1">
          <mxGeometry x="600" y="100" width="210" height="100" as="geometry" />
        </mxCell>
        <mxCell id="YQZS7FdD5D_KlTmMAMFZ-1" value="sms" style="whiteSpace=wrap;html=1;rounded=1;shadow=1;comic=0;labelBackgroundColor=none;strokeWidth=2;fontFamily=Verdana;fontSize=12;align=center;arcSize=50;" vertex="1" parent="42iXVZKyQg-ZkgAwgZf2-1">
          <mxGeometry x="830" y="90" width="100" height="20" as="geometry" />
        </mxCell>
        <mxCell id="YQZS7FdD5D_KlTmMAMFZ-2" value="&lt;span&gt;email&lt;/span&gt;" style="whiteSpace=wrap;html=1;rounded=1;shadow=1;comic=0;labelBackgroundColor=none;strokeWidth=2;fontFamily=Verdana;fontSize=12;align=center;arcSize=50;" vertex="1" parent="42iXVZKyQg-ZkgAwgZf2-1">
          <mxGeometry x="850" y="130" width="100" height="20" as="geometry" />
        </mxCell>
        <mxCell id="YQZS7FdD5D_KlTmMAMFZ-3" value="сторонние сервисы" style="whiteSpace=wrap;html=1;rounded=1;shadow=1;comic=0;labelBackgroundColor=none;strokeWidth=2;fontFamily=Verdana;fontSize=12;align=center;arcSize=50;" vertex="1" parent="42iXVZKyQg-ZkgAwgZf2-1">
          <mxGeometry x="840" y="190" width="110" height="30" as="geometry" />
        </mxCell>
        <mxCell id="YQZS7FdD5D_KlTmMAMFZ-4" value="БД askona.kz&lt;br&gt;Б24" style="shape=cylinder3;whiteSpace=wrap;html=1;boundedLbl=1;backgroundOutline=1;size=15;" vertex="1" parent="42iXVZKyQg-ZkgAwgZf2-1">
          <mxGeometry x="430" y="115" width="90" height="110" as="geometry" />
        </mxCell>
        <mxCell id="YQZS7FdD5D_KlTmMAMFZ-5" value="" style="endArrow=classic;startArrow=classic;html=1;rounded=0;entryX=0;entryY=0.5;entryDx=0;entryDy=0;exitX=1;exitY=0.5;exitDx=0;exitDy=0;exitPerimeter=0;" edge="1" parent="42iXVZKyQg-ZkgAwgZf2-1" source="YQZS7FdD5D_KlTmMAMFZ-4" target="YQZS7FdD5D_KlTmMAMFZ-0">
          <mxGeometry width="50" height="50" relative="1" as="geometry">
            <mxPoint x="510" y="290" as="sourcePoint" />
            <mxPoint x="560" y="240" as="targetPoint" />
          </mxGeometry>
        </mxCell>
        <mxCell id="YQZS7FdD5D_KlTmMAMFZ-6" value="заказы" style="endArrow=classic;startArrow=none;html=1;rounded=0;exitX=1;exitY=1;exitDx=0;exitDy=0;entryX=1;entryY=0;entryDx=0;entryDy=0;" edge="1" parent="42iXVZKyQg-ZkgAwgZf2-1" source="YQZS7FdD5D_KlTmMAMFZ-0" target="YQZS7FdD5D_KlTmMAMFZ-7">
          <mxGeometry width="50" height="50" relative="1" as="geometry">
            <mxPoint x="730" y="232" as="sourcePoint" />
            <mxPoint x="740" y="300" as="targetPoint" />
          </mxGeometry>
        </mxCell>
        <mxCell id="YQZS7FdD5D_KlTmMAMFZ-7" value="1C askona.kz" style="ellipse;whiteSpace=wrap;html=1;rounded=1;shadow=1;comic=0;labelBackgroundColor=none;strokeWidth=2;fontFamily=Verdana;fontSize=12;align=center;" vertex="1" parent="42iXVZKyQg-ZkgAwgZf2-1">
          <mxGeometry x="730" y="340" width="110" height="110" as="geometry" />
        </mxCell>
        <mxCell id="YQZS7FdD5D_KlTmMAMFZ-8" value="интеграции с платежными шлюзами" style="whiteSpace=wrap;html=1;rounded=1;shadow=1;comic=0;labelBackgroundColor=none;strokeWidth=2;fontFamily=Verdana;fontSize=12;align=center;arcSize=50;" vertex="1" parent="42iXVZKyQg-ZkgAwgZf2-1">
          <mxGeometry x="700" y="10" width="130" height="50" as="geometry" />
        </mxCell>
        <mxCell id="YQZS7FdD5D_KlTmMAMFZ-9" value="" style="endArrow=classic;startArrow=classic;html=1;rounded=0;entryX=0.5;entryY=1;entryDx=0;entryDy=0;exitX=0.642;exitY=0.022;exitDx=0;exitDy=0;exitPerimeter=0;" edge="1" parent="42iXVZKyQg-ZkgAwgZf2-1" source="YQZS7FdD5D_KlTmMAMFZ-0" target="YQZS7FdD5D_KlTmMAMFZ-8">
          <mxGeometry width="50" height="50" relative="1" as="geometry">
            <mxPoint x="520" y="250" as="sourcePoint" />
            <mxPoint x="570" y="200" as="targetPoint" />
          </mxGeometry>
        </mxCell>
        <mxCell id="YQZS7FdD5D_KlTmMAMFZ-10" value="" style="endArrow=classic;html=1;rounded=0;entryX=0;entryY=0.5;entryDx=0;entryDy=0;exitX=0.917;exitY=0.235;exitDx=0;exitDy=0;exitPerimeter=0;" edge="1" parent="42iXVZKyQg-ZkgAwgZf2-1" source="YQZS7FdD5D_KlTmMAMFZ-0" target="YQZS7FdD5D_KlTmMAMFZ-1">
          <mxGeometry width="50" height="50" relative="1" as="geometry">
            <mxPoint x="520" y="250" as="sourcePoint" />
            <mxPoint x="570" y="200" as="targetPoint" />
          </mxGeometry>
        </mxCell>
        <mxCell id="YQZS7FdD5D_KlTmMAMFZ-11" value="" style="endArrow=classic;html=1;rounded=0;entryX=0;entryY=0.5;entryDx=0;entryDy=0;exitX=1;exitY=0.5;exitDx=0;exitDy=0;" edge="1" parent="42iXVZKyQg-ZkgAwgZf2-1" source="YQZS7FdD5D_KlTmMAMFZ-0" target="YQZS7FdD5D_KlTmMAMFZ-2">
          <mxGeometry width="50" height="50" relative="1" as="geometry">
            <mxPoint x="803" y="182" as="sourcePoint" />
            <mxPoint x="570" y="200" as="targetPoint" />
          </mxGeometry>
        </mxCell>
        <mxCell id="YQZS7FdD5D_KlTmMAMFZ-12" value="" style="endArrow=classic;html=1;rounded=0;entryX=0;entryY=0.5;entryDx=0;entryDy=0;exitX=1.003;exitY=0.715;exitDx=0;exitDy=0;exitPerimeter=0;" edge="1" parent="42iXVZKyQg-ZkgAwgZf2-1" source="YQZS7FdD5D_KlTmMAMFZ-0" target="YQZS7FdD5D_KlTmMAMFZ-3">
          <mxGeometry width="50" height="50" relative="1" as="geometry">
            <mxPoint x="520" y="250" as="sourcePoint" />
            <mxPoint x="570" y="200" as="targetPoint" />
          </mxGeometry>
        </mxCell>
        <mxCell id="YQZS7FdD5D_KlTmMAMFZ-13" value="Б24" style="ellipse;whiteSpace=wrap;html=1;" vertex="1" parent="42iXVZKyQg-ZkgAwgZf2-1">
          <mxGeometry x="675" y="150" width="60" height="50" as="geometry" />
        </mxCell>
        <mxCell id="YQZS7FdD5D_KlTmMAMFZ-14" value="товары" style="endArrow=classic;html=1;rounded=0;exitX=0.184;exitY=0.082;exitDx=0;exitDy=0;exitPerimeter=0;entryX=0.214;entryY=0.929;entryDx=0;entryDy=0;entryPerimeter=0;" edge="1" parent="42iXVZKyQg-ZkgAwgZf2-1" source="YQZS7FdD5D_KlTmMAMFZ-7" target="YQZS7FdD5D_KlTmMAMFZ-0">
          <mxGeometry width="50" height="50" relative="1" as="geometry">
            <mxPoint x="520" y="280" as="sourcePoint" />
            <mxPoint x="570" y="230" as="targetPoint" />
          </mxGeometry>
        </mxCell>
        <mxCell id="K_6S44pZKELU0-nZa0NQ-0" value="Api Service" style="ellipse;whiteSpace=wrap;html=1;rounded=1;shadow=1;comic=0;labelBackgroundColor=none;strokeWidth=2;fontFamily=Verdana;fontSize=12;align=center;" vertex="1" parent="42iXVZKyQg-ZkgAwgZf2-1">
          <mxGeometry x="400" y="310" width="150" height="130" as="geometry" />
        </mxCell>
        <mxCell id="-opgnjT0x0myLm0r0H2q-0" value="остатки&lt;br&gt;цены" style="endArrow=classic;html=1;rounded=0;exitX=0;exitY=0.5;exitDx=0;exitDy=0;" edge="1" parent="42iXVZKyQg-ZkgAwgZf2-1" source="YQZS7FdD5D_KlTmMAMFZ-7" target="K_6S44pZKELU0-nZa0NQ-0">
          <mxGeometry width="50" height="50" relative="1" as="geometry">
            <mxPoint x="720" y="310" as="sourcePoint" />
            <mxPoint x="770" y="260" as="targetPoint" />
          </mxGeometry>
        </mxCell>
        <mxCell id="-opgnjT0x0myLm0r0H2q-1" value="остатки&lt;br&gt;цены" style="endArrow=classic;html=1;rounded=0;exitX=0.5;exitY=0;exitDx=0;exitDy=0;entryX=0.5;entryY=1;entryDx=0;entryDy=0;entryPerimeter=0;" edge="1" parent="42iXVZKyQg-ZkgAwgZf2-1" source="K_6S44pZKELU0-nZa0NQ-0" target="YQZS7FdD5D_KlTmMAMFZ-4">
          <mxGeometry width="50" height="50" relative="1" as="geometry">
            <mxPoint x="720" y="300" as="sourcePoint" />
            <mxPoint x="770" y="250" as="targetPoint" />
          </mxGeometry>
        </mxCell>
      </root>
    </mxGraphModel>
  </diagram>
</mxfile>
